# xmcd CD database file
#
# Track frame offsets:
#	150
#	34577
#	56837
#	78350
#	101302
#	128632
#	152757
#	176902
#	203070
#	232207
#	261120
#	279895
#	306655
#
# Disc length: 4290 seconds
#
# Revision: 0
# Processed by: cddbd v1.4PL0 Copyright (c) Steve Scherf et al.
# Submitted via: CDex 1.50Beta7
#
DISCID=b110c00d
DTITLE=Various Artist - Brit Jazz
DYEAR=1997
DGENRE=Jazz
TTITLE0=Dave Cliff Quartet - Bock To Bock
TTITLE1=Pat Crumly Septet - Nightwalk
TTITLE2=Pat Crumly Quartet - Three Little Words
TTITLE3=Brian Dee Trio - In Your Own Sweet Way
TTITLE4=Don Rendell Sextett - The Blues House Effect
TTITLE5=Mark Nightingale_Alan Barnes Sextett - Raincheck
TTITLE6=Christine Tobin with The Dick Pearce Quartett - Daydream
TTITLE7=John Horler Trio - Whisper Not
TTITLE8=Harry Beckett's Flugelhorn Four - The Shadowy Light
TTITLE9=Brian Dee Trio - The Promised Land
TTITLE10=Dave Cliff Quartett - That Old Feeling
TTITLE11=Pat Crumly Quartett - This Heart Of Mine
TTITLE12=Brian Dee Trio - I Should Care
EXTD=YEAR: 1997
EXTT0=
EXTT1=
EXTT2=
EXTT3=
EXTT4=
EXTT5=
EXTT6=
EXTT7=
EXTT8=
EXTT9=
EXTT10=
EXTT11=
EXTT12=
PLAYORDER=
